<svg width="83" height="84" viewBox="0 0 83 84" fill="none" xmlns="http://www.w3.org/2000/svg">
<path d="M41.7628 83.9759C31.1956 84.1332 20.9579 81.713 13.2943 77.2459C5.63084 72.7788 1.16697 66.6293 0.88147 60.1458V17.6278C1.07793 12.9409 4.29264 8.49253 9.82196 5.25651C15.3513 2.02049 22.7448 0.260389 30.3842 0.36146C38.0352 0.24916 45.4463 2.00426 50.9904 5.24147C56.5345 8.47868 59.7587 12.9335 59.955 17.6278V60.1876C59.6717 63.0246 57.6353 65.6884 54.2611 67.6357C50.8869 69.5831 46.4291 70.6673 41.7969 70.6673C37.1647 70.6673 32.7069 69.5831 29.3327 67.6357C25.9585 65.6884 23.9221 63.0246 23.6388 60.1876V20.9306C23.6388 19.8218 24.3566 18.7584 25.6344 17.9744C26.9122 17.1904 28.6453 16.7499 30.4523 16.7499C32.2594 16.7499 33.9924 17.1904 35.2702 17.9744C36.548 18.7584 37.2659 19.8218 37.2659 20.9306V60.1876C37.4018 60.8663 37.9375 61.491 38.7721 61.944C39.6067 62.397 40.6826 62.6471 41.7969 62.6471C42.9112 62.6471 43.9871 62.397 44.8217 61.944C45.6563 61.491 46.192 60.8663 46.3279 60.1876V17.6278C46.1161 15.1546 44.3231 12.8323 41.3382 11.1652C38.3532 9.49801 34.4171 8.62043 30.3842 8.72291C26.3628 8.63169 22.4442 9.51433 19.474 11.1803C16.5039 12.8463 14.7205 15.1621 14.5086 17.6278V60.1458C14.7922 64.412 17.8197 68.4353 22.928 71.3346C28.0363 74.2339 34.809 75.7729 41.7628 75.6145C48.7166 75.7729 55.4893 74.2339 60.5976 71.3346C65.7059 68.4353 68.7334 64.412 69.0171 60.1458V17.6278C69.0171 16.5191 69.7349 15.4557 71.0127 14.6716C72.2905 13.8876 74.0236 13.4471 75.8306 13.4471C77.6377 13.4471 79.3708 13.8876 80.6486 14.6716C81.9263 15.4557 82.6442 16.5191 82.6442 17.6278V60.1458C82.3587 66.6293 77.8948 72.7788 70.2313 77.2459C62.5678 81.713 52.3301 84.1332 41.7628 83.9759Z" fill="#3D5F9F"/>
</svg>
